<svg width="40" height="40" viewBox="0 0 40 40" fill="none" xmlns="http://www.w3.org/2000/svg">
<circle cx="20" cy="20" r="19" stroke="white" stroke-width="2"/>
<path d="M14.5159 19.596C14.8379 19.596 15.1109 19.5563 15.3349 19.477C15.5636 19.393 15.7503 19.2787 15.8949 19.134C16.0396 18.9893 16.1446 18.8213 16.2099 18.63C16.2753 18.434 16.3079 18.224 16.3079 18C16.3079 17.552 16.1609 17.202 15.8669 16.95C15.5776 16.698 15.1273 16.572 14.5159 16.572H13.5639V19.596H14.5159ZM19.5419 25H17.3999C17.0033 25 16.7186 24.8507 16.5459 24.552L14.8519 21.591C14.7726 21.465 14.6839 21.374 14.5859 21.318C14.4879 21.2573 14.3479 21.227 14.1659 21.227H13.5639V25H11.1979V14.801H14.5159C15.2533 14.801 15.8809 14.878 16.3989 15.032C16.9216 15.1813 17.3463 15.3913 17.6729 15.662C18.0043 15.9327 18.2446 16.2523 18.3939 16.621C18.5433 16.9897 18.6179 17.391 18.6179 17.825C18.6179 18.1563 18.5736 18.469 18.4849 18.763C18.3963 19.057 18.2656 19.33 18.0929 19.582C17.9203 19.8293 17.7056 20.051 17.4489 20.247C17.1969 20.443 16.9053 20.604 16.5739 20.73C16.7279 20.8093 16.8726 20.9097 17.0079 21.031C17.1433 21.1477 17.2646 21.2877 17.3719 21.451L19.5419 25ZM24.5457 23.131C24.8631 23.131 25.1454 23.0797 25.3927 22.977C25.6447 22.8697 25.8571 22.718 26.0297 22.522C26.2024 22.326 26.3331 22.088 26.4217 21.808C26.5151 21.5233 26.5617 21.2013 26.5617 20.842V14.801H28.9277V20.842C28.9277 21.4673 28.8251 22.0413 28.6197 22.564C28.4191 23.0867 28.1297 23.537 27.7517 23.915C27.3737 24.293 26.9141 24.587 26.3727 24.797C25.8314 25.007 25.2224 25.112 24.5457 25.112C23.8644 25.112 23.2531 25.007 22.7117 24.797C22.1704 24.587 21.7107 24.293 21.3327 23.915C20.9547 23.537 20.6654 23.0867 20.4647 22.564C20.2641 22.0413 20.1637 21.4673 20.1637 20.842V14.801H22.5297V20.835C22.5297 21.1943 22.5741 21.5163 22.6627 21.801C22.7561 22.081 22.8891 22.3213 23.0617 22.522C23.2344 22.718 23.4444 22.8697 23.6917 22.977C23.9437 23.0797 24.2284 23.131 24.5457 23.131Z" fill="white"/>
</svg>
